<svg width="46" height="48" viewBox="0 0 46 48" fill="none" xmlns="http://www.w3.org/2000/svg">
<rect width="46" height="48" fill="#B069DB"/>
<g clip-path="url(#clip0_865_853)">
<path d="M24.5926 17.6329V14.5712C24.5926 14.1166 24.412 13.6805 24.0905 13.359C23.769 13.0375 23.333 12.8569 22.8783 12.8569H13.5715C13.1168 12.8569 12.6808 13.0375 12.3593 13.359C12.0378 13.6805 11.8572 14.1166 11.8572 14.5712V23.8781C11.8572 24.3327 12.0378 24.7688 12.3593 25.0903C12.6808 25.4118 13.1168 25.5924 13.5715 25.5924H16.6332M23.1217 22.4072H32.4286C32.4286 22.4072 34.1429 22.4072 34.1429 24.1215V33.4284C34.1429 33.4284 34.1429 35.1426 32.4286 35.1426H23.1217C23.1217 35.1426 21.4075 35.1426 21.4075 33.4284V24.1215C21.4075 24.1215 21.4075 22.4072 23.1217 22.4072Z" stroke="white" stroke-width="1.71429" stroke-linecap="round" stroke-linejoin="round"/>
<path d="M16.5217 18.0085C16.408 18.0085 16.299 17.9634 16.2187 17.883C16.1383 17.8026 16.0931 17.6936 16.0931 17.5799C16.0931 17.4663 16.1383 17.3573 16.2187 17.2769C16.299 17.1965 16.408 17.1514 16.5217 17.1514M25.8354 31.1417C25.7218 31.1417 25.6128 31.0965 25.5324 31.0161C25.452 30.9358 25.4069 30.8267 25.4069 30.7131C25.4069 30.5994 25.452 30.4904 25.5324 30.41C25.6128 30.3297 25.7218 30.2845 25.8354 30.2845C25.9491 30.2845 26.0581 30.3297 26.1385 30.41C26.2188 30.4904 26.264 30.5994 26.264 30.7131C26.264 30.8267 26.2188 30.9358 26.1385 31.0161C26.0581 31.0965 25.9491 31.1417 25.8354 31.1417Z" stroke="white" stroke-width="1.71429" stroke-linecap="round" stroke-linejoin="round"/>
<path d="M16.52 18.0085C16.6337 18.0085 16.7427 17.9634 16.8231 17.883C16.9034 17.8026 16.9486 17.6936 16.9486 17.5799C16.9486 17.4663 16.9034 17.3573 16.8231 17.2769C16.7427 17.1965 16.6337 17.1514 16.52 17.1514M29.7183 27.6085C29.6046 27.6085 29.4956 27.5634 29.4153 27.483C29.3349 27.4026 29.2897 27.2936 29.2897 27.1799C29.2897 27.0663 29.3349 26.9573 29.4153 26.8769C29.4956 26.7965 29.6046 26.7514 29.7183 26.7514" stroke="white" stroke-width="1.71429" stroke-linecap="round" stroke-linejoin="round"/>
<path d="M29.7166 27.6081C29.8302 27.6081 29.9392 27.563 30.0196 27.4826C30.1 27.4022 30.1451 27.2932 30.1451 27.1795C30.1451 27.0659 30.1 26.9569 30.0196 26.8765C29.9392 26.7961 29.8302 26.751 29.7166 26.751" stroke="white" stroke-width="1.71429" stroke-linecap="round" stroke-linejoin="round"/>
</g>
<defs>
<clipPath id="clip0_865_853">
<rect width="24" height="24" fill="white" transform="translate(11 12)"/>
</clipPath>
</defs>
</svg>
