<svg width="46" height="48" viewBox="0 0 46 48" fill="none" xmlns="http://www.w3.org/2000/svg">
<rect width="46" height="48" fill="#DB6969"/>
<path fill-rule="evenodd" clip-rule="evenodd" d="M20.3483 21.3483C21.0516 20.6451 22.0054 20.25 23 20.25C23.9946 20.25 24.9484 20.6451 25.6517 21.3483C26.3549 22.0516 26.75 23.0054 26.75 24C26.75 24.9946 26.3549 25.9484 25.6517 26.6517C24.9484 27.3549 23.9946 27.75 23 27.75C22.0054 27.75 21.0516 27.3549 20.3483 26.6517C19.6451 25.9484 19.25 24.9946 19.25 24C19.25 23.0054 19.6451 22.0516 20.3483 21.3483ZM23 21.75C22.4033 21.75 21.831 21.9871 21.409 22.409C20.9871 22.831 20.75 23.4033 20.75 24C20.75 24.5967 20.9871 25.169 21.409 25.591C21.831 26.0129 22.4033 26.25 23 26.25C23.5967 26.25 24.169 26.0129 24.591 25.591C25.0129 25.169 25.25 24.5967 25.25 24C25.25 23.4033 25.0129 22.831 24.591 22.409C24.169 21.9871 23.5967 21.75 23 21.75Z" fill="white"/>
<path fill-rule="evenodd" clip-rule="evenodd" d="M16 18.75C15.6685 18.75 15.3505 18.8817 15.1161 19.1161C14.8817 19.3505 14.75 19.6685 14.75 20V28C14.75 28.3315 14.8817 28.6495 15.1161 28.8839C15.3505 29.1183 15.6685 29.25 16 29.25H30C30.3315 29.25 30.6495 29.1183 30.8839 28.8839C31.1183 28.6495 31.25 28.3315 31.25 28V20C31.25 19.6685 31.1183 19.3505 30.8839 19.1161C30.6495 18.8817 30.3315 18.75 30 18.75H16ZM14.0555 18.0555C14.5712 17.5397 15.2707 17.25 16 17.25H30C30.7293 17.25 31.4288 17.5397 31.9445 18.0555C32.4603 18.5712 32.75 19.2707 32.75 20V28C32.75 28.7293 32.4603 29.4288 31.9445 29.9445C31.4288 30.4603 30.7293 30.75 30 30.75H16C15.2707 30.75 14.5712 30.4603 14.0555 29.9445C13.5397 29.4288 13.25 28.7293 13.25 28V20C13.25 19.2707 13.5397 18.5712 14.0555 18.0555Z" fill="white"/>
<path fill-rule="evenodd" clip-rule="evenodd" d="M28.25 24C28.25 23.5858 28.5858 23.25 29 23.25H29.01C29.4242 23.25 29.76 23.5858 29.76 24C29.76 24.4142 29.4242 24.75 29.01 24.75H29C28.5858 24.75 28.25 24.4142 28.25 24Z" fill="white"/>
<path fill-rule="evenodd" clip-rule="evenodd" d="M16.25 24C16.25 23.5858 16.5858 23.25 17 23.25H17.01C17.4242 23.25 17.76 23.5858 17.76 24C17.76 24.4142 17.4242 24.75 17.01 24.75H17C16.5858 24.75 16.25 24.4142 16.25 24Z" fill="white"/>
</svg>
