<svg width="46" height="48" viewBox="0 0 46 48" fill="none" xmlns="http://www.w3.org/2000/svg">
<rect width="46" height="48" fill="#5578F1"/>
<g clip-path="url(#clip0_865_1076)">
<path fill-rule="evenodd" clip-rule="evenodd" d="M14 28.5C13.7334 28.5 13.25 28.839 13.25 29.625C13.25 30.411 13.7334 30.75 14 30.75H26.75C27.0166 30.75 27.5 30.411 27.5 29.625C27.5 28.839 27.0166 28.5 26.75 28.5C26.3358 28.5 26 28.1642 26 27.75C26 27.3358 26.3358 27 26.75 27C28.14 27 29 28.3401 29 29.625C29 30.899 28.1545 32.2273 26.7853 32.2497C26.6752 32.9396 26.4091 33.5815 25.9805 34.0995C25.3879 34.8158 24.5192 35.25 23.4688 35.25H17.2812C16.2308 35.25 15.3621 34.8158 14.7695 34.0995C14.3409 33.5815 14.0748 32.9396 13.9647 32.2497C12.5955 32.2273 11.75 30.899 11.75 29.625C11.75 28.3401 12.61 27 14 27C14.4142 27 14.75 27.3358 14.75 27.75C14.75 28.1642 14.4142 28.5 14 28.5ZM15.4936 32.25C15.5816 32.6067 15.7319 32.9096 15.9252 33.1433C16.2309 33.5128 16.6747 33.75 17.2812 33.75H23.4688C24.0753 33.75 24.5191 33.5128 24.8248 33.1433C25.0181 32.9096 25.1684 32.6067 25.2564 32.25H15.4936Z" fill="white"/>
<path fill-rule="evenodd" clip-rule="evenodd" d="M22.2102 16.5051C22.6217 16.4572 22.994 16.752 23.0419 17.1634L23.3906 20.162C23.3987 20.2313 23.397 20.2995 23.3867 20.3652C24.3005 20.5298 25.1448 20.8733 25.8341 21.4104C26.8336 22.1894 27.4576 23.3403 27.4979 24.7875C27.8563 24.8603 28.1884 25.0368 28.4508 25.2992C28.8025 25.6509 29 26.1278 29 26.6251C29 27.1224 28.8025 27.5993 28.4508 27.9509C28.0992 28.3025 27.6223 28.5001 27.125 28.5001H19.5607L18.4133 29.6474C18.4132 29.6475 18.4134 29.6474 18.4133 29.6474C18.3263 29.7345 18.2227 29.8038 18.109 29.8509C17.9952 29.8981 17.8732 29.9224 17.75 29.9224C17.6268 29.9224 17.5048 29.8981 17.391 29.8509C17.2773 29.8038 17.174 29.7348 17.087 29.6477C17.0869 29.6476 17.0871 29.6478 17.087 29.6477L15.9393 28.5001H13.625C13.1277 28.5001 12.6508 28.3025 12.2992 27.9509C11.9475 27.5993 11.75 27.1224 11.75 26.6251C11.75 26.1278 11.9475 25.6509 12.2992 25.2992C12.5615 25.0369 12.8936 24.8603 13.2518 24.7876C13.2894 23.3353 13.9143 22.1828 14.9171 21.4044C15.9302 20.6179 17.2776 20.2501 18.6875 20.2501H21.8907L21.5519 17.3367C21.504 16.9253 21.7988 16.5529 22.2102 16.5051ZM14.754 24.7501H25.9955C25.9485 23.7864 25.5375 23.081 24.912 22.5936C24.2257 22.0587 23.2294 21.7501 22.0625 21.7501H18.6875C17.5193 21.7501 16.5229 22.0568 15.8369 22.5893C15.2099 23.076 14.7986 23.7818 14.754 24.7501ZM13.625 26.2501C13.5255 26.2501 13.4302 26.2896 13.3598 26.3599C13.2895 26.4302 13.25 26.5256 13.25 26.6251C13.25 26.7245 13.2895 26.8199 13.3598 26.8902C13.4302 26.9606 13.5255 27.0001 13.625 27.0001H16.0948C16.3928 27.0002 16.6789 27.1186 16.8897 27.3291L17.75 28.1894L18.61 27.3294C18.8208 27.1188 19.1068 27.0002 19.4048 27.0001H27.125C27.2245 27.0001 27.3198 26.9606 27.3902 26.8902C27.4605 26.8199 27.5 26.7245 27.5 26.6251C27.5 26.5256 27.4605 26.4302 27.3902 26.3599C27.3198 26.2896 27.2245 26.2501 27.125 26.2501H13.625ZM17.352 28.5874C17.3519 28.5875 17.3521 28.5873 17.352 28.5874V28.5874ZM18.148 28.5874C18.1479 28.5873 18.1481 28.5875 18.148 28.5874V28.5874Z" fill="white"/>
<path fill-rule="evenodd" clip-rule="evenodd" d="M32.782 16.5042C33.1939 16.5478 33.4925 16.917 33.449 17.3289L31.7729 33.1807C31.7277 33.742 31.4736 34.2661 31.0606 34.6494C30.6445 35.0355 30.0978 35.25 29.5302 35.2501H23C22.5858 35.2501 22.25 34.9143 22.25 34.5001C22.25 34.0858 22.5858 33.7501 23 33.7501H29.5301C29.7194 33.7501 29.9016 33.6785 30.0403 33.5498C30.179 33.4211 30.2639 33.2448 30.278 33.0561L30.2789 33.0446L31.9573 17.1712C32.0008 16.7593 32.3701 16.4607 32.782 16.5042Z" fill="white"/>
<path fill-rule="evenodd" clip-rule="evenodd" d="M31.9132 13.2583C32.0467 13.6504 31.837 14.0765 31.4449 14.2099L29.6286 14.8283L28.9777 17.4319C28.8772 17.8337 28.47 18.078 28.0682 17.9776C27.6663 17.8771 27.422 17.4699 27.5224 17.0681L28.2724 14.0681C28.3342 13.8209 28.5172 13.6221 28.7584 13.54L30.9615 12.79C31.3536 12.6565 31.7797 12.8661 31.9132 13.2583Z" fill="white"/>
<path fill-rule="evenodd" clip-rule="evenodd" d="M20.75 17.25C20.75 16.8358 21.0858 16.5 21.5 16.5H33.5C33.9142 16.5 34.25 16.8358 34.25 17.25C34.25 17.6642 33.9142 18 33.5 18H21.5C21.0858 18 20.75 17.6642 20.75 17.25Z" fill="white"/>
</g>
<defs>
<clipPath id="clip0_865_1076">
<rect width="24" height="24" fill="white" transform="translate(11 12)"/>
</clipPath>
</defs>
</svg>
