<svg width="46" height="48" viewBox="0 0 46 48" fill="none" xmlns="http://www.w3.org/2000/svg">
<rect width="46" height="48" fill="#F155B3"/>
<path fill-rule="evenodd" clip-rule="evenodd" d="M13.25 33C13.25 32.5858 13.5858 32.25 14 32.25H32C32.4142 32.25 32.75 32.5858 32.75 33C32.75 33.4142 32.4142 33.75 32 33.75H14C13.5858 33.75 13.25 33.4142 13.25 33Z" fill="white"/>
<path fill-rule="evenodd" clip-rule="evenodd" d="M15.3292 14.6646C15.4562 14.4105 15.7159 14.25 16 14.25H30C30.2841 14.25 30.5438 14.4105 30.6708 14.6646L32.6708 18.6646C32.7229 18.7687 32.75 18.8836 32.75 19V20C32.75 20.9946 32.3549 21.9484 31.6517 22.6517C30.9484 23.3549 29.9946 23.75 29 23.75C28.0054 23.75 27.0516 23.3549 26.3483 22.6517C26.2221 22.5254 26.1059 22.3912 26 22.25C25.8941 22.3912 25.7779 22.5254 25.6517 22.6517C24.9484 23.3549 23.9946 23.75 23 23.75C22.0054 23.75 21.0516 23.3549 20.3483 22.6517C20.2221 22.5254 20.1059 22.3912 20 22.25C19.8941 22.3912 19.7779 22.5254 19.6517 22.6517C18.9484 23.3549 17.9946 23.75 17 23.75C16.0054 23.75 15.0516 23.3549 14.3483 22.6517C13.6451 21.9484 13.25 20.9946 13.25 20V19C13.25 18.8836 13.2771 18.7687 13.3292 18.6646L15.3292 14.6646ZM20.75 20C20.75 20.5967 20.9871 21.169 21.409 21.591C21.831 22.0129 22.4033 22.25 23 22.25C23.5967 22.25 24.169 22.0129 24.591 21.591C25.0129 21.169 25.25 20.5967 25.25 20V19.75H20.75V20ZM19.25 19.75V20C19.25 20.5967 19.0129 21.169 18.591 21.591C18.169 22.0129 17.5967 22.25 17 22.25C16.4033 22.25 15.831 22.0129 15.409 21.591C14.9871 21.169 14.75 20.5967 14.75 20V19.75H19.25ZM30.7865 18.25L29.5365 15.75H16.4635L15.2135 18.25H30.7865ZM31.25 19.75H26.75V20C26.75 20.5967 26.9871 21.169 27.409 21.591C27.831 22.0129 28.4033 22.25 29 22.25C29.5967 22.25 30.169 22.0129 30.591 21.591C31.0129 21.169 31.25 20.5967 31.25 20V19.75Z" fill="white"/>
<path fill-rule="evenodd" clip-rule="evenodd" d="M16 22.1001C16.4142 22.1001 16.75 22.4359 16.75 22.8501V33.0001C16.75 33.4143 16.4142 33.7501 16 33.7501C15.5858 33.7501 15.25 33.4143 15.25 33.0001V22.8501C15.25 22.4359 15.5858 22.1001 16 22.1001Z" fill="white"/>
<path fill-rule="evenodd" clip-rule="evenodd" d="M30 22.1001C30.4142 22.1001 30.75 22.4359 30.75 22.8501V33.0001C30.75 33.4143 30.4142 33.7501 30 33.7501C29.5858 33.7501 29.25 33.4143 29.25 33.0001V22.8501C29.25 22.4359 29.5858 22.1001 30 22.1001Z" fill="white"/>
<path fill-rule="evenodd" clip-rule="evenodd" d="M22 27.75C21.6685 27.75 21.3505 27.8817 21.1161 28.1161C20.8817 28.3505 20.75 28.6685 20.75 29V33C20.75 33.4142 20.4142 33.75 20 33.75C19.5858 33.75 19.25 33.4142 19.25 33V29C19.25 28.2707 19.5397 27.5712 20.0555 27.0555C20.5712 26.5397 21.2707 26.25 22 26.25H24C24.7293 26.25 25.4288 26.5397 25.9445 27.0555C26.4603 27.5712 26.75 28.2707 26.75 29V33C26.75 33.4142 26.4142 33.75 26 33.75C25.5858 33.75 25.25 33.4142 25.25 33V29C25.25 28.6685 25.1183 28.3505 24.8839 28.1161C24.6495 27.8817 24.3315 27.75 24 27.75H22Z" fill="white"/>
</svg>
