<svg width="46" height="48" viewBox="0 0 46 48" fill="none" xmlns="http://www.w3.org/2000/svg">
<rect width="46" height="48" fill="#69D4DB"/>
<path d="M14.7626 22.7626C15.0908 22.4344 15.5359 22.25 16 22.25C16.4641 22.25 16.9092 22.4344 17.2374 22.7626C17.5656 23.0908 17.75 23.5359 17.75 24C17.75 24.4641 17.5656 24.9092 17.2374 25.2374C16.9092 25.5656 16.4641 25.75 16 25.75C15.5359 25.75 15.0908 25.5656 14.7626 25.2374C14.4344 24.9092 14.25 24.4641 14.25 24C14.25 23.5359 14.4344 23.0908 14.7626 22.7626Z" fill="white"/>
<path d="M21.7626 22.7626C22.0908 22.4344 22.5359 22.25 23 22.25C23.4641 22.25 23.9092 22.4344 24.2374 22.7626C24.5656 23.0908 24.75 23.5359 24.75 24C24.75 24.4641 24.5656 24.9092 24.2374 25.2374C23.9092 25.5656 23.4641 25.75 23 25.75C22.5359 25.75 22.0908 25.5656 21.7626 25.2374C21.4344 24.9092 21.25 24.4641 21.25 24C21.25 23.5359 21.4344 23.0908 21.7626 22.7626Z" fill="white"/>
<path d="M28.7626 22.7626C29.0908 22.4344 29.5359 22.25 30 22.25C30.4641 22.25 30.9092 22.4344 31.2374 22.7626C31.5656 23.0908 31.75 23.5359 31.75 24C31.75 24.4641 31.5656 24.9092 31.2374 25.2374C30.9092 25.5656 30.4641 25.75 30 25.75C29.5359 25.75 29.0908 25.5656 28.7626 25.2374C28.4344 24.9092 28.25 24.4641 28.25 24C28.25 23.5359 28.4344 23.0908 28.7626 22.7626Z" fill="white"/>
</svg>
