<svg width="46" height="48" viewBox="0 0 46 48" fill="none" xmlns="http://www.w3.org/2000/svg">
<rect width="46" height="48" fill="#69DB72"/>
<path fill-rule="evenodd" clip-rule="evenodd" d="M17.4167 28.2197C18.9639 26.6728 21.0621 25.8037 23.25 25.8037C25.4379 25.8037 27.5362 26.6728 29.0833 28.2197C29.3762 28.5126 29.3763 28.9875 29.0834 29.2804C28.7905 29.5733 28.3156 29.5733 28.0227 29.2805C26.7569 28.0148 25.0401 27.3037 23.25 27.3037C21.4599 27.3037 19.7432 28.0148 18.4773 29.2805C18.1844 29.5733 17.7095 29.5733 17.4167 29.2804C17.1238 28.9875 17.1238 28.5126 17.4167 28.2197Z" fill="white"/>
<path fill-rule="evenodd" clip-rule="evenodd" d="M24.2531 14.48C25.9822 14.0167 27.8246 14.2592 29.375 15.1543L29.375 15.1543C30.9253 16.0495 32.0565 17.5238 32.5198 19.2529C32.9831 20.9821 32.7405 22.8245 31.8455 24.3748C31.746 24.5471 31.5822 24.6728 31.3901 24.7243C31.1979 24.7758 30.9932 24.7488 30.8209 24.6494L20.4289 18.6494C20.2567 18.5499 20.131 18.3861 20.0795 18.1939C20.028 18.0018 20.055 17.7971 20.1545 17.6248C21.0496 16.0745 22.5239 14.9433 24.2531 14.48ZM28.6249 16.4533C27.4191 15.7572 25.9862 15.5685 24.6413 15.9289C23.5402 16.2239 22.572 16.8671 21.8751 17.7523L30.8748 22.9484C31.293 21.9023 31.3659 20.7422 31.0709 19.6411C30.7106 18.2963 29.8307 17.1496 28.625 16.4534" fill="white"/>
<path fill-rule="evenodd" clip-rule="evenodd" d="M27.8119 15.1265C28.272 14.9428 28.8513 14.8523 29.3747 15.1542C29.8983 15.4562 30.1098 16.0032 30.1809 16.4936C30.2536 16.9945 30.2053 17.5772 30.0814 18.183C29.8319 19.4026 29.2395 20.8896 28.3814 22.3751C28.1742 22.7337 27.7154 22.8565 27.3568 22.6493C26.9981 22.4421 26.8753 21.9834 27.0825 21.6247C27.8824 20.2402 28.4025 18.9052 28.6118 17.8823C28.7172 17.3669 28.7348 16.9731 28.6965 16.709C28.6741 16.5546 28.6401 16.4848 28.6226 16.458C28.5906 16.4563 28.5131 16.4617 28.3678 16.5196C28.1199 16.6186 27.7877 16.8307 27.394 17.1798C26.6129 17.8725 25.7169 18.9903 24.9175 20.3749C24.7104 20.7336 24.2517 20.8565 23.8929 20.6494C23.5342 20.4423 23.4113 19.9836 23.6184 19.6249C24.476 18.1395 25.4675 16.8833 26.3989 16.0575C26.8614 15.6473 27.3418 15.3141 27.8119 15.1265ZM28.6406 16.4605C28.6405 16.4606 28.6397 16.4604 28.6381 16.4598C28.6398 16.4602 28.6406 16.4605 28.6406 16.4605ZM28.6133 16.4455C28.612 16.4444 28.6114 16.4437 28.6114 16.4437C28.6114 16.4436 28.6121 16.4442 28.6133 16.4455Z" fill="white"/>
<path fill-rule="evenodd" clip-rule="evenodd" d="M26.375 20.3506C26.7337 20.5577 26.8566 21.0164 26.6495 21.3751L23.6495 26.5711C23.4424 26.9299 22.9837 27.0528 22.625 26.8456C22.2663 26.6385 22.1434 26.1798 22.3505 25.8211L25.3505 20.6251C25.5576 20.2664 26.0163 20.1435 26.375 20.3506Z" fill="white"/>
<path fill-rule="evenodd" clip-rule="evenodd" d="M15.0186 31.7498C14.7807 31.757 14.5471 31.8156 14.334 31.9216C13.9631 32.106 13.5129 31.9548 13.3285 31.5839C13.1441 31.213 13.2952 30.7629 13.6661 30.5785C14.0747 30.3753 14.5225 30.2634 14.9786 30.2503L14.9843 30.2502L14.9843 30.2502C15.4955 30.2395 16.0017 30.3534 16.459 30.5821C16.9164 30.8107 17.3112 31.1473 17.6093 31.5627C17.7655 31.7803 17.9723 31.9566 18.2119 32.0764C18.4514 32.1962 18.7166 32.2558 18.9843 32.2502C18.9948 32.25 19.0053 32.25 19.0158 32.2502C19.2835 32.2558 19.5486 32.1962 19.7882 32.0764C20.0278 31.9566 20.2346 31.7803 20.3908 31.5627C20.6889 31.1473 21.0837 30.8107 21.5411 30.5821C21.9937 30.3557 22.4942 30.2418 23 30.2499C23.5059 30.2418 24.0064 30.3557 24.459 30.5821C24.9164 30.8107 25.3112 31.1473 25.6093 31.5627C25.7655 31.7803 25.9723 31.9566 26.2119 32.0764C26.4514 32.1962 26.7166 32.2558 26.9843 32.2502C26.9948 32.25 27.0053 32.25 27.0158 32.2502C27.2835 32.2558 27.5486 32.1962 27.7882 32.0764C28.0278 31.9566 28.2346 31.7803 28.3908 31.5627C28.6889 31.1473 29.0837 30.8107 29.5411 30.5821C29.9984 30.3534 30.5045 30.2395 31.0158 30.2502L31.0215 30.2503V30.2503C31.4776 30.2634 31.9254 30.3753 32.334 30.5785C32.7048 30.7629 32.856 31.213 32.6716 31.5839C32.4872 31.9548 32.037 32.106 31.6661 31.9216C31.453 31.8156 31.2194 31.757 30.9815 31.7498C30.7147 31.7447 30.4506 31.8044 30.2119 31.9237C29.9723 32.0435 29.7655 32.2198 29.6093 32.4374C29.3112 32.8528 28.9164 33.1893 28.459 33.418C28.0064 33.6443 27.5059 33.7582 27 33.7502C26.4942 33.7582 25.9937 33.6443 25.5411 33.418C25.0837 33.1893 24.6889 32.8528 24.3908 32.4374C24.2346 32.2198 24.0278 32.0435 23.7882 31.9237C23.5486 31.8039 23.2835 31.7443 23.0158 31.7499C23.0053 31.7501 22.9948 31.7501 22.9843 31.7499C22.7166 31.7443 22.4514 31.8039 22.2119 31.9237C21.9723 32.0435 21.7655 32.2198 21.6093 32.4374C21.3112 32.8528 20.9164 33.1893 20.459 33.418C20.0064 33.6443 19.5059 33.7582 19 33.7502C18.4942 33.7582 17.9937 33.6443 17.5411 33.418C17.0837 33.1893 16.6889 32.8528 16.3908 32.4374C16.2346 32.2198 16.0278 32.0435 15.7882 31.9237C15.5495 31.8044 15.2854 31.7447 15.0186 31.7498Z" fill="white"/>
</svg>
